<svg width="64" height="64" viewBox="0 0 64 64" fill="none" xmlns="http://www.w3.org/2000/svg">
<circle cx="32" cy="32" r="32" fill="url(#paint0_linear_3604_2185)"/>
<path d="M40.4795 46.6608V37.0117L41.766 37.1287V46.6608H40.4795Z" fill="white"/>
<path d="M42.5847 46.8362V37.1871H43.9297L45.6256 39.3509V37.538L46.9122 37.655V47.3041L45.5672 47.1871V41.3392L43.9297 39.2339V46.9532L42.5847 46.8362Z" fill="white"/>
<path d="M47.7896 44.5556V37.772L52.0001 38.5322V39.9357L50.772 40.4035V39.5848L49.0761 39.3509V42.5088L52.0001 41.3392V48.1813L47.7896 47.4796V46.0176L49.0761 45.4913V46.3684L50.772 46.6024V43.386L47.7896 44.5556Z" fill="white"/>
<path d="M17.1462 47.3041V37.7135L21.4152 37.1287V38.6491L20.1287 39.5263V38.6491L18.3743 38.883V42.4503L20.772 40.8129V42.2164L18.3743 43.8538V47.1286L17.1462 47.3041Z" fill="white"/>
<path d="M24.9241 46.5439V36.8948L29.1931 36.7778V38.1813L27.9065 39.0585V38.0644H26.2691V45.0234H27.9065V41.9825L29.1931 41.2223V46.4269L24.9241 46.5439Z" fill="white"/>
<path d="M30.1284 46.31V36.7194H31.4734V41.3392L33.1109 40.462V36.7194H34.3974V46.31H33.1109V41.9825L31.4734 42.9182V46.31H30.1284Z" fill="white"/>
<path fill-rule="evenodd" clip-rule="evenodd" d="M35.2163 36.7194V46.3685H36.5029V43.0351L38.2572 42.1579V46.4854H39.6023V36.9533L35.2163 36.7194ZM36.5611 38.0058V41.5146L38.3154 40.7544V38.0058H36.5611Z" fill="white"/>
<path d="M51.0057 16.7778H43.0525V32.041L51.0057 34.5556V29.234L48.725 29.9942V31.5731L45.3332 30.6959V27.4796L49.8361 25.8421V23.1521L45.3332 24.9065V18.7661L48.725 18.9416V20.6375L51.0057 19.4679V16.7778Z" fill="white"/>
<path d="M35.684 30.9299H33.2864V16.7778H35.8595L37.3215 18.0059L38.725 16.7778H41.4735V31.807L38.9589 31.3392V19.3509L37.3215 20.9884L35.684 19.3509V30.9299Z" fill="white"/>
<path fill-rule="evenodd" clip-rule="evenodd" d="M21.0643 19.0585L18.7251 20.4036V18.8246H15.3918V31.5731L18.7251 30.6375V25.6667L17.3801 26.7193V24.2047L21.883 21.4562V23.6784L21.0643 24.0293V32.0995L12.9941 34.5556V16.7194H21.0643V19.0585ZM23.6374 16.7194V31.5731L25.7427 31.2807V26.2515L29.1929 24.4971V30.9883H31.6491V16.7194H23.6374ZM25.9181 18.5322V24.0292L29.1929 22.4503V18.5322H25.9181Z" fill="white"/>
<path fill-rule="evenodd" clip-rule="evenodd" d="M12 38.5907L16.2105 37.9474V47.4211L12 48.1228V38.5907ZM13.3451 39.6433L14.9825 39.3509V46.3685L13.3451 46.7193V39.6433Z" fill="white"/>
<defs>
<linearGradient id="paint0_linear_3604_2185" x1="12.2553" y1="7.14894" x2="54.8085" y2="51.4043" gradientUnits="userSpaceOnUse">
<stop stop-color="#7893FF"/>
<stop offset="0.322917" stop-color="#3858D4"/>
<stop offset="1" stop-color="#08133D"/>
</linearGradient>
</defs>
</svg>
