<svg width="64" height="64" viewBox="0 0 64 64" fill="none" xmlns="http://www.w3.org/2000/svg">
<circle cx="32" cy="32" r="32" fill="url(#paint0_linear_18_1385)"/>
<g clip-path="url(#clip0_18_1385)">
<path d="M26.2508 40.8736L25.853 41.1032V40.6478C25.853 40.6478 25.8491 40.8813 25.9544 40.9397C26.0597 40.9942 26.2508 40.8736 26.2508 40.8736Z" fill="white"/>
<path d="M16.0898 40.4026C18.3201 44.6136 22.1373 47.77 26.6992 49.1711C31.2611 50.576 36.1973 50.1129 40.4161 47.8828C44.6387 45.6567 47.797 41.8465 49.2045 37.293C50.6121 32.7395 50.1364 27.8162 47.9062 23.6013C49.9181 29.9334 42.9115 32.1557 42.9115 32.1557L34.4349 36.5808L25.6191 41.1693C25.6191 41.1693 19.6146 45.0262 16.0898 40.4026Z" fill="white"/>
<path d="M16.0586 40.4337C18.2889 44.6448 22.106 47.8011 26.6679 49.2022C31.2298 50.6072 36.166 50.144 40.3848 47.914C44.6075 45.6878 47.7657 41.8776 49.1733 37.3241C50.5808 32.7706 50.1169 27.8474 47.8827 23.6324C49.8946 29.9646 42.8802 32.1868 42.8802 32.1868L34.4037 36.6119L25.5918 41.2004C25.5879 41.2004 19.5833 45.0573 16.0586 40.4337Z" fill="#BABABA"/>
<path d="M48.0154 40.2157C50.1949 35.9774 50.5965 31.0464 49.1344 26.5084C47.6722 21.9744 44.4633 18.2031 40.2173 16.0276C35.9673 13.852 31.0311 13.4511 26.4848 14.9106C21.9385 16.3701 18.1603 19.5692 15.9807 23.8114C20.024 18.5378 25.8726 23.0018 25.8726 23.0018L34.3648 27.4036L43.1844 31.9804C43.1844 31.9804 49.7933 34.6814 48.0154 40.2157Z" fill="white"/>
<path d="M47.9726 40.1963C50.1444 35.9697 50.546 31.0543 49.0877 26.5319C47.6295 22.0095 44.4322 18.2499 40.1979 16.0822C35.9635 13.9144 31.039 13.5135 26.5083 14.9691C21.9737 16.4208 18.2072 19.616 16.0354 23.8426C20.067 18.5847 25.8961 23.0331 25.8961 23.0331L34.361 27.4192L43.1533 31.9844C43.1533 31.9844 49.7466 34.6776 47.9726 40.1963Z" fill="#DCDCDC"/>
<path d="M25.8569 23.4262L25.8491 22.9475L26.2663 23.181C26.2663 23.181 26.0558 23.0565 25.9466 23.1226C25.8452 23.1888 25.8569 23.4262 25.8569 23.4262Z" fill="white"/>
<path d="M32.0019 14.0427C27.2295 14.0427 22.6481 15.9342 19.2715 19.3046C15.8949 22.6749 14 27.244 14 32.0077C14 36.7714 15.8949 41.3443 19.2715 44.7108C22.6481 48.0812 27.2256 49.9727 32.0019 49.9727C25.8765 48.9452 25.8765 41.0213 25.8765 41.0213V32.0077V22.8306C25.8726 22.8306 25.8726 15.1363 32.0019 14.0427Z" fill="white"/>
<path d="M32.0019 14C27.2256 14 22.6481 15.8915 19.2715 19.2618C15.8949 22.6322 14 27.2013 14 31.9689C14 36.7325 15.8949 41.3055 19.2715 44.672C22.6481 48.0424 27.2256 49.9338 32.0019 49.9338C25.8765 47.9801 25.8765 41.037 25.8765 41.037V31.9883V22.9981C25.8726 22.9981 25.6504 15.1637 32.0019 14Z" fill="white"/>
<path d="M31.9551 49.9689C25.8765 47.2056 25.8843 41.0331 25.8843 41.0331C25.8843 41.0331 18.3474 45.2753 15.813 39.85C15.8091 39.85 20.0591 50.0039 31.9551 49.9689Z" fill="#BABABA"/>
</g>
<defs>
<linearGradient id="paint0_linear_18_1385" x1="12.2553" y1="7.14894" x2="54.8085" y2="51.4043" gradientUnits="userSpaceOnUse">
<stop offset="0.0001" stop-color="#6C63FF"/>
<stop offset="0.286458" stop-color="#574DFF"/>
<stop offset="0.972566" stop-color="#1B1462"/>
</linearGradient>
<clipPath id="clip0_18_1385">
<rect width="36" height="36" fill="white" transform="translate(14 14)"/>
</clipPath>
</defs>
</svg>
