<svg width="64" height="64" viewBox="0 0 64 64" fill="none" xmlns="http://www.w3.org/2000/svg">
<circle cx="32" cy="32" r="32" fill="url(#paint0_linear_3779_2165)"/>
<g clip-path="url(#clip0_3779_2165)">
<path fill-rule="evenodd" clip-rule="evenodd" d="M36.9839 12.0644C34.2313 9.31187 29.7687 9.31187 27.0161 12.0644L12.0644 27.0161C9.31187 29.7687 9.31187 34.2313 12.0644 36.9839L27.0161 51.9356C29.7687 54.6881 34.2313 54.6881 36.9839 51.9356L51.9356 36.9839C54.6881 34.2313 54.6881 29.7687 51.9356 27.0161L36.9839 12.0644ZM46.0966 24.9832C46.0966 21.0905 42.941 17.9349 39.0483 17.9349H24.9517C21.059 17.9349 17.9034 21.0905 17.9034 24.9832V39.0798C17.9034 42.9725 21.059 46.1281 24.9517 46.1281H39.0483C42.941 46.1281 46.0966 42.9725 46.0966 39.0798V24.9832Z" fill="white"/>
<path d="M30.0065 20.0694C31.1075 18.9684 32.8926 18.9684 33.9936 20.0694L43.9614 30.0372C45.0624 31.1382 45.0624 32.9234 43.9614 34.0244L33.9936 43.9921C32.8926 45.0931 31.1075 45.0931 30.0065 43.9921L20.0386 34.0244C18.9376 32.9234 18.9376 31.1382 20.0386 30.0372L30.0065 20.0694Z" fill="white"/>
</g>
<defs>
<linearGradient id="paint0_linear_3779_2165" x1="12.2553" y1="7.14894" x2="55.5" y2="53.5" gradientUnits="userSpaceOnUse">
<stop stop-color="#EB791F"/>
<stop offset="0.322917" stop-color="#EC583A"/>
<stop offset="1" stop-color="#8F0306"/>
</linearGradient>
<clipPath id="clip0_3779_2165">
<rect width="44" height="44" fill="white" transform="translate(10 10)"/>
</clipPath>
</defs>
</svg>
